<svg width="20" height="20" viewBox="0 0 20 20" fill="none" xmlns="http://www.w3.org/2000/svg">
<g clip-path="url(#clip0_180_2327)">
<path d="M14.9991 0H4.99939C2.2497 0 -0.000488281 2.25019 -0.000488281 4.99988V15.0001C-0.000488281 17.7491 2.2497 20 4.99939 20H14.9991C17.7488 20 19.999 17.7491 19.999 15.0001V4.99988C19.999 2.25019 17.7488 0 14.9991 0ZM18.3323 15.0001C18.3323 16.8376 16.8376 18.3333 14.9991 18.3333H4.99939C3.16169 18.3333 1.66622 16.8376 1.66622 15.0001V4.99988C1.66622 3.16193 3.16169 1.66671 4.99939 1.66671H14.9991C16.8376 1.66671 18.3323 3.16193 18.3323 4.99988V15.0001Z" fill="black"/>
<path d="M15.4175 5.83246C16.1078 5.83246 16.6674 5.27283 16.6674 4.58249C16.6674 3.89215 16.1078 3.33252 15.4175 3.33252C14.7271 3.33252 14.1675 3.89215 14.1675 4.58249C14.1675 5.27283 14.7271 5.83246 15.4175 5.83246Z" fill="black"/>
<path d="M10.0004 4.99951C7.23842 4.99951 5.00049 7.23769 5.00049 9.99939C5.00049 12.7601 7.23842 14.9998 10.0004 14.9998C12.7615 14.9998 15.0002 12.7601 15.0002 9.99939C15.0002 7.23769 12.7615 4.99951 10.0004 4.99951ZM10.0004 13.333C8.15964 13.333 6.66719 11.8406 6.66719 9.99939C6.66719 8.15817 8.15964 6.66622 10.0004 6.66622C11.8411 6.66622 13.3335 8.15817 13.3335 9.99939C13.3335 11.8406 11.8411 13.333 10.0004 13.333Z" fill="black"/>
</g>
<defs>
<clipPath id="clip0_180_2327">
<rect width="20" height="20" fill="white"/>
</clipPath>
</defs>
</svg>
