<svg width="172" height="40" viewBox="0 0 172 40" fill="none" xmlns="http://www.w3.org/2000/svg">
<g clip-path="url(#clip0_550_2631)">
<path d="M0 -0.0576172V8.35652H10.8399V40.0074H20.4104V8.35652H31.2503V-0.0576172H0Z" fill="white"/>
<path d="M111.202 -0.0576172L104.283 24.5459H104.167L97.9403 -0.0576172H87.7921L81.4508 24.5459H81.3353L74.4163 -0.0576172H64.1526L76.9537 40.0074H85.7746L92.9247 13.6555H92.9824L99.8437 40.0074H108.665L121.464 -0.0576172H111.202Z" fill="white"/>
<path d="M133.246 11.3417H133.361L137.858 24.8286H128.804L133.246 11.3417ZM128.691 -0.0576172L113.701 40.0074H123.791L126.155 32.8413H140.511L142.933 40.0074H153.024L137.916 -0.0576172H128.691Z" fill="white"/>
<path d="M148.232 -0.0581055L163.339 40.0069H171.935L156.829 -0.0581055H148.232Z" fill="#FECC00"/>
<path d="M55.6883 27.5367C55.6883 25.0533 53.7864 23.3049 49.6344 23.3049H44.0989V31.77H49.6344C53.2087 31.77 55.6883 30.3565 55.6883 27.5381V27.5367ZM44.0989 15.9127H48.6524C51.5407 15.9127 53.8412 14.6152 53.8412 12.0752C53.8412 9.81376 52.1689 8.23779 48.3057 8.23779H44.0989V15.9127ZM65.7209 28.8357C65.7209 35.2682 61.3971 40.0088 52.6325 40.0088H34.644V-0.0576172H50.0965C59.2063 -0.0576172 63.5879 3.55369 63.5879 9.70493C63.5879 13.1466 62.0889 16.7579 57.6495 18.5643V18.6774C63.185 20.1445 65.7224 23.8689 65.7224 28.8343" fill="white"/>
</g>
<defs>
<clipPath id="clip0_550_2631">
<rect width="172" height="40" fill="white"/>
</clipPath>
</defs>
</svg>
