<svg width="172" height="40" viewBox="0 0 172 40" fill="none" xmlns="http://www.w3.org/2000/svg">
<g clip-path="url(#clip0_406_231)">
<path d="M0 -0.0576172V8.35652H10.8399V40.0074H20.4104V8.35652H31.2503V-0.0576172H0Z" fill="black"/>
<path d="M111.202 -0.0576172L104.283 24.5459H104.167L97.94 -0.0576172H87.7919L81.4505 24.5459H81.335L74.416 -0.0576172H64.1523L76.9534 40.0074H85.7744L92.9244 13.6555H92.9822L99.8434 40.0074H108.664L121.464 -0.0576172H111.202Z" fill="black"/>
<path d="M133.246 11.3417H133.362L137.859 24.8286H128.804L133.246 11.3417ZM128.691 -0.0576172L113.701 40.0074H123.791L126.155 32.8413H140.512L142.933 40.0074H153.024L137.916 -0.0576172H128.691Z" fill="black"/>
<path d="M148.232 -0.0581055L163.339 40.0069H171.935L156.829 -0.0581055H148.232Z" fill="#FECC00"/>
<path d="M55.6884 27.5367C55.6884 25.0533 53.7864 23.3049 49.6345 23.3049H44.099V31.77H49.6345C53.2088 31.77 55.6884 30.3565 55.6884 27.5381V27.5367ZM44.099 15.9127H48.6524C51.5408 15.9127 53.8413 14.6152 53.8413 12.0752C53.8413 9.81376 52.169 8.23779 48.3058 8.23779H44.099V15.9127ZM65.721 28.8357C65.721 35.2682 61.3972 40.0088 52.6326 40.0088H34.644V-0.0576172H50.0966C59.2064 -0.0576172 63.588 3.55369 63.588 9.70493C63.588 13.1466 62.089 16.7579 57.6496 18.5643V18.6774C63.1851 20.1445 65.7225 23.8689 65.7225 28.8343" fill="black"/>
</g>
<defs>
<clipPath id="clip0_406_231">
<rect width="172" height="40" fill="white"/>
</clipPath>
</defs>
</svg>
